<?xml version="1.0" standalone="no"?>
<!DOCTYPE svg PUBLIC "-//W3C//DTD SVG 20010904//EN"
 "http://www.w3.org/TR/2001/REC-SVG-20010904/DTD/svg10.dtd">
<svg version="1.0" xmlns="http://www.w3.org/2000/svg"
 width="707.000000pt" height="510.000000pt" viewBox="0 0 707.000000 510.000000"
 preserveAspectRatio="xMidYMid meet">
<metadata>
Created by potrace 1.16, written by Peter Selinger 2001-2019
</metadata>
<g transform="translate(0.000000,510.000000) scale(0.100000,-0.100000)"
fill="#000000" stroke="none">
<path d="M3240 4644 c-85 -27 -486 -143 -840 -244 -351 -100 -648 -191 -890
-275 -138 -47 -458 -168 -488 -184 -16 -9 -18 -21 -17 -89 2 -44 6 -85 10 -91
3 -7 160 -89 348 -183 188 -94 355 -180 371 -191 l29 -20 -7 -236 c-5 -167
-11 -237 -19 -240 -7 -2 -33 -25 -58 -50 -37 -37 -49 -57 -59 -102 -11 -50
-10 -60 8 -101 l19 -45 -34 -18 c-49 -27 -111 -98 -138 -158 -33 -76 -45 -145
-45 -261 0 -95 -2 -105 -28 -147 -16 -24 -54 -67 -85 -95 -54 -47 -56 -52 -40
-66 37 -32 63 -37 218 -39 156 -3 161 -3 210 23 87 46 174 157 211 272 9 28
19 55 21 59 3 4 23 -9 46 -30 96 -88 221 -174 362 -250 44 -23 78 -43 75 -43
-3 0 -59 11 -125 25 -166 34 -191 33 -258 -12 -69 -48 -110 -96 -141 -164 -88
-194 -33 -472 148 -748 74 -114 127 -171 188 -202 35 -18 52 -20 105 -15 112
12 245 52 488 150 237 94 378 138 630 197 72 16 136 32 144 35 10 3 8 -4 -5
-23 -132 -200 -158 -340 -101 -541 36 -129 59 -155 71 -81 9 54 37 108 81 155
l36 38 65 -71 c40 -45 83 -81 116 -97 28 -14 53 -24 55 -22 2 1 -8 28 -22 59
-26 57 -47 197 -29 197 5 0 25 -29 44 -63 48 -85 165 -201 238 -235 51 -24 69
-27 167 -27 75 0 131 6 175 18 78 21 170 62 170 75 0 5 -26 13 -57 17 -76 9
-173 41 -207 69 l-27 21 78 34 c107 45 177 91 163 105 -7 7 -54 11 -118 11
-89 1 -115 5 -157 23 -114 52 -167 144 -181 320 -4 45 -5 83 -3 84 2 0 252 4
554 9 395 5 589 12 690 23 77 9 169 19 205 22 85 9 102 18 155 89 60 81 108
183 141 301 24 84 28 119 28 229 1 72 -3 151 -7 178 -8 45 -10 47 -40 47 -18
-1 -45 -7 -62 -14 -29 -12 -31 -11 -105 65 -80 82 -204 169 -241 169 -12 0
-59 -24 -103 -54 -124 -83 -375 -202 -403 -192 -7 3 -13 13 -13 21 0 9 -20 55
-44 103 -42 81 -47 99 -70 257 -27 180 -86 635 -86 659 0 16 45 31 550 186
129 40 290 93 358 117 l122 45 0 47 c0 25 -3 64 -7 85 l-6 39 -231 112 c-354
172 -610 283 -1236 533 -316 127 -669 271 -785 321 -115 50 -214 91 -220 90
-5 0 -30 -7 -55 -15z m-1223 -1417 c-84 -391 -109 -509 -123 -591 l-18 -99
-22 28 -22 28 25 34 c39 50 41 105 8 208 -28 86 -28 89 -21 264 3 97 9 188 12
203 l6 27 80 -40 c69 -35 79 -43 75 -62z m-188 -398 c45 -48 34 -158 -20 -203
-51 -43 -115 -32 -144 24 -29 57 -11 138 40 178 37 29 97 30 124 1z m-42 -274
c25 -18 43 -71 43 -130 0 -30 3 -36 10 -25 5 8 10 27 10 43 0 44 18 31 34 -24
50 -166 13 -350 -94 -472 -49 -56 -88 -80 -160 -101 l-54 -16 41 42 c41 44 55
65 73 115 8 21 -2 13 -45 -34 -30 -34 -71 -71 -89 -82 -35 -22 -139 -46 -155
-37 -5 3 21 36 59 73 37 38 77 88 89 113 21 43 19 41 -61 -42 -73 -76 -116
-108 -149 -108 -5 0 15 30 45 67 101 125 167 279 165 384 0 51 -9 36 -29 -51
-14 -62 -40 -120 -52 -120 -11 0 -10 62 3 140 18 117 76 213 150 250 21 11 40
20 43 20 3 0 6 -19 8 -42 l4 -43 21 48 c24 52 49 60 90 32z m3755 -352 c75
-39 207 -158 192 -173 -14 -13 -155 -67 -300 -115 -152 -50 -502 -141 -510
-132 -3 3 2 30 12 59 9 29 22 77 28 107 11 53 11 53 71 77 88 36 261 125 334
172 35 23 73 42 84 42 10 0 51 -17 89 -37z m344 -198 c12 -47 -3 -327 -21
-395 -21 -81 -94 -233 -134 -281 -17 -20 -45 -43 -63 -52 -58 -27 -432 -60
-833 -73 -174 -5 -682 9 -692 20 -3 3 -13 51 -23 108 -9 57 -31 142 -47 190
l-29 87 36 5 c19 3 62 8 95 11 33 4 116 16 185 27 109 18 136 19 211 9 163
-21 200 -14 282 57 36 31 58 42 94 46 107 13 365 84 624 171 151 51 282 93
291 94 11 1 20 -9 24 -24z m-3756 -171 c0 -3 -18 -26 -40 -51 -76 -87 -112
-246 -91 -398 6 -47 14 -92 17 -100 9 -22 45 -19 321 27 139 23 255 39 259 35
4 -4 12 -50 18 -102 27 -254 -64 -438 -237 -475 -108 -23 -195 16 -273 122
-51 69 -123 208 -161 307 -69 183 -71 397 -5 503 23 37 96 109 127 126 21 12
65 16 65 6z m458 -59 c106 -19 259 -42 340 -51 169 -18 528 -21 666 -5 61 7
94 7 108 0 10 -6 38 -13 61 -17 40 -7 43 -10 53 -52 l11 -45 -45 -7 c-112 -17
-407 -30 -542 -24 -134 7 -353 30 -392 42 -15 4 -14 -2 7 -53 90 -224 61 -580
-55 -663 -25 -18 -159 -66 -233 -84 l-29 -7 25 33 c64 85 87 173 88 324 0 248
-63 407 -229 578 -60 61 -71 77 -52 72 14 -3 112 -22 218 -41z m-273 16 c56
-26 126 -91 171 -158 38 -58 104 -204 104 -233 0 -12 -30 -21 -127 -38 -236
-41 -403 -65 -409 -59 -13 13 -23 95 -24 189 0 158 40 256 122 297 53 26 110
27 163 2z m1771 -11 c101 -21 250 -61 301 -81 l28 -12 -29 -8 c-16 -4 -84 -13
-150 -19 -67 -5 -141 -12 -166 -14 -44 -4 -47 -3 -87 45 l-43 50 22 30 c12 16
23 29 24 29 1 0 46 -9 100 -20z m-1046 -222 c117 -17 534 -14 675 5 61 8 112
13 113 11 13 -10 1 -127 -17 -175 -31 -82 -121 -220 -156 -240 -16 -10 -84
-27 -150 -38 -154 -27 -349 -81 -496 -137 -64 -24 -119 -44 -122 -44 -4 0 2
21 12 48 47 121 54 368 14 520 l-20 74 31 -6 c17 -3 69 -11 116 -18z"/>
</g>
</svg>
