<?xml version="1.0" standalone="no"?>
<!DOCTYPE svg PUBLIC "-//W3C//DTD SVG 20010904//EN"
 "http://www.w3.org/TR/2001/REC-SVG-20010904/DTD/svg10.dtd">
<svg version="1.0" xmlns="http://www.w3.org/2000/svg"
 width="260.000000pt" height="260.000000pt" viewBox="0 0 260.000000 260.000000"
 preserveAspectRatio="xMidYMid meet">
<metadata>
Created by potrace 1.16, written by Peter Selinger 2001-2019
</metadata>
<g transform="translate(0.000000,260.000000) scale(0.100000,-0.100000)"
fill="#000000" stroke="none">
<path d="M945 2584 c-435 -76 -751 -352 -847 -740 -30 -124 -31 -313 0 -437
47 -191 143 -371 287 -541 118 -139 136 -208 144 -564 6 -262 6 -264 30 -283
22 -18 47 -19 573 -19 l549 0 24 24 c17 17 25 39 29 82 13 117 38 163 109 201
33 17 71 19 248 13 106 -4 165 19 201 78 21 35 23 50 26 240 l4 202 27 6 c111
25 138 35 159 60 36 41 24 73 -66 169 -87 95 -140 175 -153 235 -6 27 -5 78 5
154 12 95 12 127 0 202 -34 225 -147 437 -326 609 -105 101 -168 146 -290 205
-216 105 -500 145 -733 104z m254 -255 c30 -18 38 -19 86 -8 64 14 109 2 150
-41 26 -27 35 -30 95 -30 79 0 143 -28 175 -77 14 -22 31 -33 56 -37 41 -7 79
-43 82 -79 1 -17 16 -35 43 -56 114 -82 133 -285 30 -322 -30 -11 -34 -16 -34
-48 0 -47 -41 -83 -118 -106 -90 -26 -126 -48 -222 -138 -92 -86 -93 -86 -237
-126 -98 -26 -132 -74 -191 -261 l-28 -91 -40 3 -41 3 -16 75 -15 75 -95 6
c-136 8 -206 35 -234 89 -13 25 -17 26 -68 22 -73 -6 -113 15 -138 74 -11 25
-19 59 -17 77 2 26 -3 36 -28 54 -18 12 -41 42 -53 66 -47 96 -36 212 28 319
29 46 36 68 30 80 -25 47 -1 120 55 163 26 19 35 35 39 67 14 104 140 184 254
162 47 -9 49 -8 68 21 26 38 85 59 131 46 22 -6 36 -6 40 1 25 39 158 51 213
17z"/>
</g>
</svg>
