<?xml version="1.0" standalone="no"?>
<!DOCTYPE svg PUBLIC "-//W3C//DTD SVG 20010904//EN"
 "http://www.w3.org/TR/2001/REC-SVG-20010904/DTD/svg10.dtd">
<svg version="1.0" xmlns="http://www.w3.org/2000/svg"
 width="474.000000pt" height="248.000000pt" viewBox="0 0 474.000000 248.000000"
 preserveAspectRatio="xMidYMid meet">
<metadata>
Created by potrace 1.16, written by Peter Selinger 2001-2019
</metadata>
<g transform="translate(0.000000,248.000000) scale(0.100000,-0.100000)"
fill="#000000" stroke="none">
<path d="M1453 2360 c-81 -17 -144 -65 -186 -144 l-22 -41 0 -710 0 -710 22
-41 c30 -56 79 -103 133 -128 42 -19 67 -21 336 -24 l291 -4 -8 -51 c-4 -29
-10 -78 -14 -110 l-6 -57 -79 0 c-75 0 -80 -1 -114 -34 -28 -26 -36 -41 -36
-69 0 -47 17 -82 49 -104 24 -17 68 -18 536 -21 465 -2 513 -1 548 14 43 20
67 57 67 106 0 71 -54 108 -158 108 l-69 0 -11 83 c-7 45 -12 94 -12 109 l0
26 288 4 c266 3 290 5 332 24 53 25 103 73 133 129 22 40 22 41 22 750 0 709
0 710 -22 750 -30 56 -80 104 -133 129 -45 21 -54 21 -945 23 -495 0 -919 -3
-942 -7z m1854 -85 c48 -20 71 -41 94 -87 18 -35 19 -68 19 -643 l0 -605 -430
0 -430 0 0 110 0 110 208 1 c133 0 219 4 241 12 47 17 71 53 78 120 5 46 9 57
24 57 55 0 89 42 89 110 0 39 1 40 35 40 34 0 35 1 35 40 0 39 -1 40 -35 40
-19 0 -35 5 -35 10 0 26 34 88 65 120 79 81 104 221 58 322 -91 199 -338 243
-491 87 -53 -54 -82 -129 -82 -212 0 -73 24 -131 79 -197 46 -54 61 -82 61
-109 0 -17 -6 -21 -35 -21 -34 0 -35 -1 -35 -40 l0 -40 40 0 40 0 0 -53 c0
-63 17 -85 74 -94 35 -5 36 -7 36 -47 0 -23 -5 -47 -12 -54 -9 -9 -72 -12
-221 -12 l-209 0 40 45 c155 176 179 453 56 657 -73 120 -203 217 -340 253
-89 23 -234 19 -315 -8 -184 -63 -327 -213 -373 -393 -9 -34 -16 -76 -16 -93
0 -25 -21 -54 -110 -156 -87 -100 -110 -132 -110 -155 0 -43 31 -70 83 -72 23
0 47 -2 52 -3 6 -2 18 -3 28 -4 14 -1 17 -12 17 -73 0 -89 23 -144 75 -184 32
-24 49 -29 112 -32 l73 -4 0 -39 0 -39 -260 0 -260 0 0 605 c0 575 1 608 19
643 23 45 46 66 91 86 30 13 157 15 938 16 790 0 907 -2 939 -15z m-1008 -150
c130 -34 254 -129 313 -241 100 -186 70 -404 -77 -565 -30 -32 -55 -63 -55
-69 0 -6 -84 -10 -237 -10 -229 0 -237 1 -260 22 -30 28 -30 74 -1 105 19 20
31 23 106 23 126 0 172 38 172 144 0 45 1 46 30 46 46 0 90 27 106 65 8 21 14
68 14 119 0 93 -11 116 -56 116 -21 0 -24 5 -24 35 0 33 -2 35 -35 35 -33 0
-35 -2 -35 -35 0 -34 -1 -35 -40 -35 -39 0 -40 1 -40 35 0 33 -2 35 -35 35
-33 0 -35 -2 -35 -35 0 -32 -3 -35 -28 -35 -45 0 -52 -15 -52 -117 0 -133 31
-183 113 -183 l38 0 -3 -52 -3 -53 -102 -10 c-76 -8 -110 -16 -130 -31 -88
-65 -79 -192 18 -249 31 -18 56 -20 277 -23 l242 -4 0 -109 0 -109 -280 0
-280 0 0 63 c0 36 -5 68 -12 75 -7 7 -43 12 -94 12 -67 0 -86 4 -108 21 -42
33 -50 58 -56 169 l-5 105 -84 5 -83 5 104 117 104 118 12 81 c20 141 88 257
196 334 34 24 75 49 92 56 97 39 221 49 313 24z m849 -11 c76 -38 115 -98 120
-185 5 -74 -13 -121 -68 -181 -39 -41 -58 -76 -68 -125 l-8 -38 -76 -3 -76 -3
-7 38 c-8 44 -43 109 -75 138 -75 68 -88 196 -27 286 63 94 182 124 285 73z
m-818 -379 c0 -79 -8 -85 -110 -85 -102 0 -110 6 -110 85 l0 65 110 0 110 0 0
-65z m1085 -929 c0 -66 -37 -119 -101 -147 -41 -19 -78 -19 -957 -17 l-913 3
-42 28 c-49 32 -82 91 -82 145 0 21 2 41 4 43 2 2 474 3 1048 1 l1043 -2 0
-54z m-1020 -246 l242 0 6 -37 c4 -21 9 -71 13 -110 l7 -73 -292 0 -291 0 0
29 c0 59 22 186 33 193 7 4 18 6 25 3 8 -3 123 -5 257 -5z m494 -314 c9 -11
10 -20 1 -35 -11 -21 -14 -21 -522 -19 -464 3 -512 5 -521 20 -8 12 -7 21 2
32 12 14 70 16 521 16 429 0 509 -2 519 -14z"/>
<path d="M2936 1911 c-9 -13 24 -70 48 -86 24 -16 26 -22 26 -97 l0 -79 38 3
37 3 2 75 c1 66 4 77 26 96 56 48 61 89 13 92 -26 2 -38 -2 -46 -18 -14 -25
-45 -26 -62 -1 -13 19 -73 27 -82 12z"/>
</g>
</svg>
