<?xml version="1.0" standalone="no"?>
<!DOCTYPE svg PUBLIC "-//W3C//DTD SVG 20010904//EN"
 "http://www.w3.org/TR/2001/REC-SVG-20010904/DTD/svg10.dtd">
<svg version="1.0" xmlns="http://www.w3.org/2000/svg"
 width="904.000000pt" height="583.000000pt" viewBox="0 0 904.000000 583.000000"
 preserveAspectRatio="xMidYMid meet">

<g transform="translate(0.000000,583.000000) scale(0.100000,-0.100000)"
fill="#000000" stroke="none">
<path d="M3940 5634 c-7 -17 -10 -275 -10 -705 1 -595 3 -680 16 -694 14 -13
70 -15 437 -13 l422 3 3 488 c2 481 2 487 -18 487 -19 0 -20 -8 -22 -452 l-3
-453 -390 0 -390 0 0 650 0 650 173 3 172 2 0 30 0 30 -190 0 -190 0 -10 -26z"/>
<path d="M4442 5633 c3 -26 7 -28 51 -31 46 -3 47 -3 47 27 0 30 -1 31 -51 31
-49 0 -50 -1 -47 -27z"/>
<path d="M352 5604 c2 -11 16 -21 36 -25 18 -4 35 -9 38 -11 2 -3 4 -119 4
-259 0 -228 -1 -255 -17 -266 -9 -7 -27 -13 -40 -13 -14 0 -23 -6 -23 -15 0
-12 16 -15 83 -15 l84 0 24 -37 c36 -57 103 -86 193 -85 82 0 130 18 175 62
80 80 60 200 -42 255 l-36 19 44 38 c51 45 67 89 55 144 -11 47 -37 82 -77
104 -17 9 -44 31 -58 49 -51 60 -72 65 -268 69 -168 4 -179 3 -175 -14z m316
-44 c39 -24 41 -36 5 -45 -81 -19 -140 -94 -130 -166 3 -22 1 -39 -4 -39 -5 0
-9 61 -9 135 l0 135 53 0 c34 0 63 -7 85 -20z m-188 0 c0 -5 -4 -10 -10 -10
-5 0 -10 5 -10 10 0 6 5 10 10 10 6 0 10 -4 10 -10z m240 -111 c0 -41 -24 -93
-51 -113 -29 -20 -39 -7 -39 48 0 30 7 45 35 73 39 39 55 36 55 -8z m-240 21
c0 -5 -2 -10 -4 -10 -3 0 -8 5 -11 10 -3 6 -1 10 4 10 6 0 11 -4 11 -10z m-13
-52 c-3 -8 -6 -5 -6 6 -1 11 2 17 5 13 3 -3 4 -12 1 -19z m381 -69 c-3 -44
-10 -65 -28 -84 -28 -30 -38 -31 -85 -8 -43 20 -44 27 -5 43 37 15 78 62 86
98 10 40 16 46 27 27 5 -9 7 -44 5 -76z m-238 -111 c22 -20 30 -33 22 -36 -7
-2 -33 -19 -58 -38 l-44 -34 0 70 c0 66 1 70 23 70 12 0 38 -15 57 -32z m149
-83 c83 -41 111 -73 111 -126 0 -107 -152 -159 -232 -79 -22 23 -27 35 -22 55
4 15 2 25 -5 25 -14 0 -14 40 0 77 11 29 57 83 71 83 5 0 39 -16 77 -35z"/>
<path d="M4672 5594 c7 -6 550 -5 557 1 2 3 -123 5 -279 5 -156 0 -281 -3
-278 -6z"/>
<path d="M4672 5485 c7 -7 549 -8 556 -1 3 3 -122 6 -278 6 -156 0 -281 -2
-278 -5z"/>
<path d="M4300 5465 c-7 -8 -19 -15 -26 -15 -8 0 -20 -12 -27 -27 -6 -16 -18
-32 -25 -38 -31 -24 -37 -171 -12 -267 14 -51 26 -41 35 29 4 32 11 63 16 69
13 15 226 -11 249 -31 15 -14 18 -13 28 9 12 27 4 186 -10 186 -5 0 -32 19
-59 42 -40 34 -52 39 -59 28 -9 -14 -11 -14 -91 28 -3 1 -12 -4 -19 -13z"/>
<path d="M4670 5370 c0 -6 98 -10 274 -10 173 0 277 4 281 10 4 7 -90 10 -274
10 -181 0 -281 -4 -281 -10z"/>
<path d="M1820 5269 c-47 -3 -94 -10 -105 -16 -11 -6 -44 -16 -72 -23 -32 -7
-50 -16 -46 -23 3 -6 1 -7 -5 -3 -12 7 -98 -37 -172 -87 -88 -60 -240 -222
-240 -255 0 -5 -6 -15 -14 -21 -8 -7 -18 -26 -21 -42 -4 -16 -11 -29 -15 -29
-5 0 -14 -19 -20 -42 -6 -24 -17 -56 -25 -73 -25 -56 -43 -272 -29 -344 l7
-31 167 0 167 0 11 -97 c6 -54 14 -129 18 -168 7 -82 31 -129 76 -144 38 -13
238 -15 238 -2 0 6 -9 25 -20 44 -30 51 -38 172 -15 247 13 43 23 60 35 60 10
0 29 17 43 39 15 23 37 41 54 46 15 3 36 13 45 22 16 14 58 10 58 -6 0 -4 14
-6 30 -3 25 4 37 -3 70 -37 22 -22 46 -41 52 -41 31 -1 58 -38 79 -111 l22
-76 -28 -77 c-15 -42 -37 -84 -49 -91 -18 -14 -10 -15 88 -15 105 0 108 1 136
28 16 16 31 44 35 63 4 19 28 97 54 174 l47 140 162 3 162 2 0 103 c0 109 -27
270 -54 322 -9 17 -16 38 -16 47 0 9 -6 23 -12 30 -7 8 -26 39 -43 71 -34 66
-153 199 -217 242 -23 17 -49 36 -56 42 -19 18 -179 93 -200 93 -9 1 -35 8
-57 16 -50 19 -213 31 -325 23z m45 -293 c204 -28 530 -77 533 -81 4 -4 -12
-140 -30 -252 -7 -40 -17 -73 -22 -73 -6 1 -40 27 -76 60 l-65 59 -32 -31 -32
-31 26 -34 c14 -18 23 -36 21 -39 -5 -5 -406 50 -455 62 -24 6 -30 19 -13 29
14 9 12 30 -5 71 l-15 35 -75 -52 c-100 -70 -104 -66 -81 93 10 68 20 143 23
168 3 25 10 48 15 51 5 3 46 0 91 -7 45 -8 132 -20 192 -28z m272 -455 c17
-11 34 -29 38 -40 4 -14 16 -21 43 -23 26 -2 38 -8 40 -20 3 -14 -4 -18 -32
-18 -30 0 -37 -5 -51 -34 -23 -47 -80 -73 -129 -56 -48 16 -76 53 -76 102 0
32 7 47 34 74 40 40 83 45 133 15z m-477 -250 c0 -18 -22 -71 -30 -71 -4 0
-11 11 -14 24 -3 13 -9 31 -12 40 -5 13 1 16 25 16 17 0 31 -4 31 -9z m640 2
c0 -3 -12 -22 -27 -41 l-27 -36 -12 35 c-6 19 -9 37 -7 42 5 9 73 10 73 0z"/>
<path d="M1740 4899 c0 -5 5 -7 10 -4 6 3 10 8 10 11 0 2 -4 4 -10 4 -5 0 -10
-5 -10 -11z"/>
<path d="M1828 4883 c7 -3 16 -2 19 1 4 3 -2 6 -13 5 -11 0 -14 -3 -6 -6z"/>
<path d="M2068 4883 c6 -2 18 -2 25 0 6 3 1 5 -13 5 -14 0 -19 -2 -12 -5z"/>
<path d="M1760 4860 c0 -5 5 -10 10 -10 6 0 10 5 10 10 0 6 -4 10 -10 10 -5 0
-10 -4 -10 -10z"/>
<path d="M2020 4860 c0 -5 5 -10 10 -10 6 0 10 5 10 10 0 6 -4 10 -10 10 -5 0
-10 -4 -10 -10z"/>
<path d="M1875 4850 c-3 -5 1 -10 10 -10 9 0 13 5 10 10 -3 6 -8 10 -10 10 -2
0 -7 -4 -10 -10z"/>
<path d="M2098 4848 c5 -5 16 -8 23 -6 8 3 3 7 -10 11 -17 4 -21 3 -13 -5z"/>
<path d="M1738 4833 c7 -3 16 -2 19 1 4 3 -2 6 -13 5 -11 0 -14 -3 -6 -6z"/>
<path d="M1958 4833 c7 -3 16 -2 19 1 4 3 -2 6 -13 5 -11 0 -14 -3 -6 -6z"/>
<path d="M2158 4803 c7 -3 16 -2 19 1 4 3 -2 6 -13 5 -11 0 -14 -3 -6 -6z"/>
<path d="M1948 4763 c6 -2 18 -2 25 0 6 3 1 5 -13 5 -14 0 -19 -2 -12 -5z"/>
<path d="M1842 4745 c7 -7 46 -13 123 -20 l50 -4 -45 10 c-65 14 -136 22 -128
14z"/>
<path d="M2028 4713 c7 -3 16 -2 19 1 4 3 -2 6 -13 5 -11 0 -14 -3 -6 -6z"/>
<path d="M2020 4490 c-33 -33 -30 -85 6 -117 75 -68 176 31 113 111 -26 33
-88 37 -119 6z"/>
<path d="M6052 5185 c-191 -11 -204 -13 -229 -36 -15 -13 -32 -28 -38 -34
-242 -215 -365 -332 -365 -346 0 -28 32 -39 109 -39 61 0 70 -2 76 -21 4 -11
10 -19 15 -17 4 2 72 65 149 141 132 129 162 150 175 128 4 -5 -64 -76 -149
-157 -85 -82 -155 -156 -155 -165 0 -25 49 -152 66 -170 9 -10 35 -22 60 -28
l44 -11 0 -195 0 -195 -712 0 c-392 0 -1084 -3 -1538 -7 l-825 -6 -22 -39
c-13 -22 -23 -42 -23 -44 0 -2 701 -5 1558 -6 l1557 -3 3 -165 c2 -116 6 -166
15 -172 6 -4 162 -8 345 -8 l332 0 0 -320 c0 -176 4 -320 8 -320 5 0 17 9 28
21 10 11 42 35 71 52 29 17 53 38 53 47 1 8 2 128 3 265 l2 250 545 5 c300 3
546 6 548 8 1 1 2 265 2 586 0 523 -2 584 -16 590 -9 3 -312 6 -673 6 l-658 0
-11 33 c-5 17 -26 74 -46 126 l-36 93 56 61 c35 40 54 68 52 82 -3 18 -11 20
-88 21 -47 1 -176 -4 -288 -11z m1573 -1000 l0 -530 -870 0 -870 0 -3 383 c-2
301 0 383 10 386 7 2 56 11 108 20 124 22 236 76 325 158 36 33 72 73 81 89
l15 29 602 -2 602 -3 0 -530z"/>
<path d="M1958 3513 l-48 -4 -2 -785 -3 -786 -154 -4 c-232 -6 -221 15 -221
-431 l0 -328 31 -38 30 -37 -206 0 c-191 0 -206 -1 -203 -18 3 -16 49 -17 776
-20 767 -2 772 -2 772 18 0 20 -7 20 -327 22 -181 0 -338 0 -350 -1 -28 -2
-29 6 -3 29 32 27 40 65 40 180 0 97 2 110 19 119 12 7 241 11 632 11 583 0
617 1 677 20 83 26 154 25 233 -2 l64 -23 869 0 868 0 2 -100 c1 -88 5 -107
31 -160 28 -58 29 -59 36 -31 4 15 11 53 15 85 3 31 11 64 16 75 11 20 27 20
233 -5 l91 -11 39 -61 40 -61 7 54 c5 30 7 91 6 135 l-3 80 140 0 140 0 5 -90
5 -90 38 -3 c58 -5 125 25 158 71 16 22 29 47 29 54 0 8 -17 34 -37 58 -60 68
-86 143 -91 260 -4 96 9 185 27 185 4 0 3 -22 -3 -50 -5 -27 -8 -52 -5 -54 5
-5 224 -10 347 -7 l64 1 -7 33 c-18 85 -18 85 1 52 22 -38 30 -164 15 -234
-15 -70 -57 -156 -98 -202 -33 -36 -33 -38 -20 -71 8 -18 23 -41 34 -50 47
-42 175 -64 187 -32 3 9 6 61 6 115 0 55 5 164 11 243 11 153 1 242 -38 323
-26 57 -111 137 -163 155 l-45 15 -3 130 -3 130 -34 16 c-19 9 -52 32 -73 52
-22 19 -42 35 -46 35 -3 0 -6 -81 -6 -179 l0 -179 -52 -18 c-76 -25 -156 -108
-189 -194 -20 -56 -24 -82 -24 -182 l0 -118 -181 0 c-146 0 -184 3 -194 14 -6
8 -28 20 -48 27 -20 6 -43 16 -49 21 -20 16 -96 0 -160 -32 l-58 -30 -1635 0
-1636 0 4 68 c4 62 2 71 -23 100 -36 43 -75 62 -124 62 -74 0 -71 -36 -71 876
l0 804 -27 -2 c-16 -1 -49 -3 -75 -5z m-157 -1704 l29 -31 -2 -331 -3 -331
-115 3 c-107 2 -117 4 -140 27 l-25 24 -3 321 c-2 233 0 325 9 335 8 10 39 14
116 14 105 0 105 0 134 -31z m387 -76 c19 -21 22 -33 17 -62 -10 -51 -21 -61
-71 -61 l-44 0 0 73 c0 41 3 77 7 81 14 14 68 -4 91 -31z"/>
<path d="M3778 3412 c-58 -37 -65 -46 -49 -70 6 -11 21 -8 72 13 35 15 66 29
68 31 5 5 -20 64 -28 63 -3 0 -32 -17 -63 -37z"/>
<path d="M4911 3424 c-31 -22 -28 -71 4 -86 38 -17 75 3 75 41 0 45 -43 69
-79 45z"/>
<path d="M6294 3431 c-2 -2 -4 -17 -4 -33 0 -21 5 -28 20 -28 19 0 20 -7 20
-179 0 -99 4 -191 9 -204 12 -31 60 -51 101 -42 26 6 31 11 28 33 -2 18 -10
28 -28 32 l-25 6 -3 206 -2 206 -56 4 c-31 1 -58 1 -60 -1z"/>
<path d="M2130 3340 l0 -71 28 3 c22 2 28 8 30 36 3 27 7 32 28 32 l25 0 -3
-157 -3 -158 -27 -3 c-24 -3 -28 -8 -28 -33 l0 -29 100 0 100 0 0 29 c0 24 -5
30 -26 33 l-26 3 -1 155 -1 155 27 3 c25 3 27 1 27 -33 0 -34 2 -36 28 -33 26
3 27 5 27 68 l0 65 -152 3 -153 3 0 -71z"/>
<path d="M4437 3403 c-15 -15 -7 -55 13 -60 21 -6 28 -24 91 -258 18 -66 37
-126 42 -132 5 -7 27 -13 48 -13 47 0 45 -4 94 170 63 224 64 227 86 233 16 4
20 12 17 34 -3 26 -6 28 -55 31 l-52 3 -12 -43 c-7 -24 -26 -104 -44 -178 -18
-74 -35 -128 -39 -120 -3 8 -19 78 -36 155 -16 77 -32 150 -35 163 -5 19 -12
22 -59 22 -29 0 -56 -3 -59 -7z"/>
<path d="M2883 3378 c-4 -7 -7 -29 -8 -48 0 -31 -3 -35 -28 -38 -25 -3 -28 -7
-25 -35 2 -24 9 -33 28 -37 25 -6 25 -7 26 -119 2 -101 4 -115 23 -135 17 -17
33 -21 77 -20 64 2 78 11 69 47 -6 23 -12 26 -43 24 l-37 -2 -3 103 -3 102 25
0 c42 0 56 10 56 41 0 27 -3 29 -40 29 l-40 0 0 50 0 50 -34 0 c-19 0 -38 -6
-43 -12z"/>
<path d="M5393 3383 c-8 -3 -13 -23 -13 -50 l0 -45 -63 6 c-58 7 -64 5 -86
-18 -24 -25 -24 -25 -38 -6 -11 15 -26 20 -64 20 -48 0 -49 -1 -49 -30 0 -23
6 -33 25 -40 24 -9 25 -13 25 -101 0 -82 -2 -91 -20 -96 -14 -4 -20 -14 -20
-34 l0 -29 85 0 85 0 0 29 c0 23 -5 30 -22 33 -21 3 -23 9 -26 82 -3 89 10
116 58 116 17 0 30 7 35 18 6 16 7 16 16 0 6 -10 21 -18 34 -18 25 0 25 -1 25
-99 0 -54 5 -112 11 -129 13 -38 54 -56 106 -47 53 9 62 16 56 48 -5 25 -8 27
-40 21 -47 -9 -53 2 -53 114 l0 92 35 0 c24 0 37 6 45 19 20 38 12 50 -32 53
l-43 3 -3 48 c-3 44 -5 47 -30 46 -15 0 -33 -3 -39 -6z"/>
<path d="M3149 3277 c-46 -31 -73 -103 -66 -175 17 -162 168 -214 261 -88 28
37 30 164 3 214 -38 70 -132 94 -198 49z m106 -51 c16 -11 20 -29 23 -88 4
-90 -11 -123 -53 -123 -39 0 -55 32 -55 108 0 96 36 139 85 103z"/>
<path d="M3575 3274 c-23 -25 -24 -25 -35 -5 -9 17 -20 21 -60 21 l-50 0 0
-35 c0 -28 4 -35 19 -35 26 0 31 -19 31 -111 0 -74 -2 -80 -23 -88 -17 -7 -23
-16 -22 -33 2 -22 5 -23 86 -23 83 0 84 0 84 25 0 18 -6 26 -22 28 -22 3 -23
8 -23 92 0 97 8 110 63 110 18 0 28 7 34 28 14 38 6 52 -28 52 -19 0 -39 -9
-54 -26z"/>
<path d="M3985 3293 c-31 -8 -43 -22 -38 -44 8 -28 17 -31 67 -17 51 14 76 2
76 -37 0 -19 -7 -23 -52 -29 -107 -14 -155 -115 -89 -188 24 -27 36 -33 69
-33 26 0 48 7 63 20 16 14 23 16 26 8 3 -8 24 -13 59 -13 53 0 54 0 54 30 0
23 -4 30 -20 30 -25 0 -29 18 -32 142 -4 121 -11 131 -100 134 -35 2 -72 0
-83 -3z m105 -233 c0 -35 -3 -40 -27 -46 -33 -9 -57 6 -61 36 -5 29 21 50 60
50 26 0 28 -3 28 -40z"/>
<path d="M6035 3291 c-31 -6 -43 -33 -27 -59 7 -10 18 -10 56 0 55 15 79 5 84
-34 3 -23 -1 -26 -41 -30 -65 -8 -100 -28 -121 -72 -17 -36 -18 -43 -5 -80 24
-70 107 -96 155 -49 11 12 18 13 27 4 6 -6 33 -11 59 -11 46 0 48 1 48 29 0
20 -6 30 -20 34 -18 5 -20 14 -20 96 0 106 -16 156 -55 171 -29 11 -92 11
-140 1z m115 -226 c0 -24 -6 -37 -19 -45 -33 -17 -61 -12 -73 15 -15 34 12 65
59 65 31 0 33 -2 33 -35z"/>
<path d="M2460 3255 c0 -28 4 -35 20 -35 19 0 20 -7 20 -105 0 -114 9 -147 47
-164 34 -16 53 -14 98 9 27 14 42 17 51 9 7 -5 34 -9 60 -7 42 3 48 6 49 26 1
17 -5 26 -22 33 -22 8 -23 11 -23 139 l0 131 -62 -3 c-63 -3 -63 -3 -63 -33 0
-23 5 -31 23 -33 21 -3 22 -8 22 -91 0 -95 -13 -121 -58 -121 -34 0 -42 31
-42 159 l0 121 -60 0 -60 0 0 -35z"/>
<path d="M3692 3258 c2 -26 8 -34 26 -36 22 -3 23 -6 20 -100 -3 -92 -4 -97
-25 -100 -18 -3 -23 -10 -23 -33 l0 -29 90 0 90 0 0 29 c0 23 -5 30 -22 33
-22 3 -23 7 -26 136 l-3 132 -65 0 -65 0 3 -32z"/>
<path d="M4852 3258 c2 -26 8 -34 26 -36 22 -3 23 -6 20 -100 -3 -92 -4 -97
-25 -100 -18 -3 -23 -10 -23 -33 l0 -29 90 0 90 0 0 29 c0 23 -5 30 -22 33
-22 3 -23 7 -26 136 l-3 132 -65 0 -65 0 3 -32z"/>
<path d="M5590 3260 c0 -23 5 -33 19 -37 17 -4 19 -17 22 -118 3 -93 7 -117
23 -134 29 -32 76 -36 127 -11 28 15 44 19 47 11 2 -6 27 -11 58 -11 53 0 54
0 54 30 0 20 -5 30 -15 30 -26 0 -35 38 -35 154 l0 116 -60 0 -60 0 0 -31 c0
-22 5 -32 20 -36 18 -5 20 -14 20 -99 0 -84 -2 -94 -21 -104 -11 -6 -30 -10
-42 -8 -21 3 -22 8 -27 138 l-5 135 -62 3 -63 3 0 -31z"/>
<path d="M388 3143 c6 -2 13 -19 13 -36 2 -28 2 -29 6 -7 3 14 10 31 15 38 8
9 4 12 -18 11 -16 0 -23 -3 -16 -6z"/>
<path d="M448 3145 c-2 -3 -3 -18 0 -35 6 -42 27 -38 27 5 0 31 -12 45 -27 30z"/>
<path d="M505 3139 c-4 -5 1 -19 10 -29 15 -17 15 -19 -2 -23 -14 -4 -14 -5 5
-6 24 -1 29 18 10 37 -10 10 -10 15 2 22 13 8 13 10 -2 10 -9 0 -20 -5 -23
-11z"/>
<path d="M568 3115 c2 -19 8 -35 12 -35 4 0 10 16 12 35 3 27 0 35 -12 35 -12
0 -15 -8 -12 -35z"/>
<path d="M7611 2876 c-8 -9 -11 -105 -9 -332 l3 -319 546 -3 547 -2 6 22 c3
13 6 158 6 324 0 220 -3 303 -12 312 -7 7 -43 12 -90 12 -77 0 -78 0 -78 -25
0 -24 3 -25 55 -25 l55 0 0 -288 0 -289 -122 -6 c-66 -4 -169 -7 -228 -7 -100
0 -109 2 -124 23 l-15 22 -20 -22 c-18 -21 -27 -23 -133 -23 -62 0 -164 3
-225 7 l-113 6 0 289 0 288 385 -2 385 -3 0 28 0 27 -404 0 c-329 0 -406 -3
-415 -14z"/>
<path d="M8292 2735 c0 -16 2 -22 5 -12 2 9 2 23 0 30 -3 6 -5 -1 -5 -18z"/>
<path d="M8252 2428 c-2 -40 1 -48 16 -48 11 0 13 3 5 8 -6 4 -13 25 -16 47
-4 40 -4 40 -5 -7z"/>
<path d="M8050 2426 c0 -24 -5 -36 -17 -39 -14 -4 -12 -5 5 -6 19 -1 22 4 22
39 0 22 -2 40 -5 40 -3 0 -5 -15 -5 -34z"/>
<path d="M4953 2440 c-27 -11 -39 -51 -23 -79 12 -24 68 -29 88 -9 20 20 14
65 -10 82 -25 18 -25 18 -55 6z"/>
<path d="M7978 2373 c6 -2 18 -2 25 0 6 3 1 5 -13 5 -14 0 -19 -2 -12 -5z"/>
<path d="M8298 2373 c6 -2 18 -2 25 0 6 3 1 5 -13 5 -14 0 -19 -2 -12 -5z"/>
<path d="M7900 2359 c0 -5 9 -9 20 -9 11 0 20 2 20 4 0 2 -9 6 -20 9 -11 3
-20 1 -20 -4z"/>
<path d="M8368 2353 c7 -3 16 -2 19 1 4 3 -2 6 -13 5 -11 0 -14 -3 -6 -6z"/>
<path d="M8428 2343 c7 -3 16 -2 19 1 4 3 -2 6 -13 5 -11 0 -14 -3 -6 -6z"/>
<path d="M8491 2284 c0 -11 3 -14 6 -6 3 7 2 16 -1 19 -3 4 -6 -2 -5 -13z"/>
<path d="M4869 2188 c-20 -27 -24 -46 -24 -100 0 -36 4 -70 8 -74 11 -11 27
15 27 44 0 20 5 22 55 22 46 0 60 -4 81 -25 14 -14 27 -25 29 -25 8 0 5 114
-3 125 -17 24 -71 53 -109 59 -38 7 -42 5 -64 -26z"/>
<path d="M5604 2191 c-56 -25 -87 -71 -92 -137 -3 -42 0 -60 18 -88 37 -61 48
-40 24 46 -4 12 2 19 18 22 71 15 86 17 113 20 17 2 38 6 48 11 15 6 17 1 17
-33 0 -23 -5 -53 -12 -67 -17 -38 0 -44 28 -10 71 89 21 212 -101 248 -11 4
-38 -2 -61 -12z"/>
<path d="M2840 2166 c-25 -8 -40 -23 -57 -56 -25 -51 -29 -87 -11 -125 l12
-27 11 38 c10 38 11 39 54 35 55 -4 90 -16 108 -39 12 -15 14 -8 10 56 -5 79
-18 104 -66 120 -17 6 -38 6 -61 -2z"/>
<path d="M2750 1778 c0 -7 -14 -25 -32 -40 l-33 -28 25 -19 c68 -53 192 -63
282 -23 50 22 108 68 108 86 0 11 -105 36 -148 36 -6 0 -22 -20 -36 -44 -15
-25 -30 -47 -35 -50 -5 -4 -25 16 -45 44 -27 37 -42 50 -61 50 -14 0 -25 -6
-25 -12z"/>
<path d="M1187 913 c-4 -3 -7 -10 -7 -15 0 -4 349 -8 776 -8 616 0 775 3 772
13 -4 9 -168 13 -770 15 -420 1 -768 -1 -771 -5z"/>
<path d="M5333 705 c-89 -17 -175 -38 -192 -45 -46 -19 -72 -69 -193 -374 -22
-56 -27 -44 59 -144 l42 -49 -136 -6 c-75 -4 -174 -7 -220 -7 l-84 0 3 -32 3
-33 1898 -3 1897 -2 0 33 0 34 -202 6 c-112 4 -318 7 -459 7 l-256 0 -7 92
c-8 102 -24 257 -31 301 -4 23 -1 30 15 34 40 11 7 103 -37 103 -50 0 -70 -91
-22 -103 14 -4 19 -11 16 -24 -5 -16 -16 -121 -32 -295 -7 -68 -6 -68 19 -68
31 0 40 -14 26 -40 -11 -20 -18 -20 -878 -20 -662 0 -871 3 -880 12 -7 7 -12
20 -12 30 0 15 9 18 50 18 l50 0 0 198 0 197 -20 -25 c-13 -16 -23 -21 -27
-14 -109 154 -190 254 -208 253 -11 -1 -93 -16 -182 -34z"/>
<path d="M1244 635 c-11 -29 4 -42 58 -48 71 -9 1610 -7 1668 1 40 6 45 10 45
32 l0 25 -883 3 c-778 2 -883 0 -888 -13z"/>
<path d="M1253 433 c-22 -9 -15 -50 10 -57 35 -9 1730 -7 1745 3 8 4 12 19 10
32 l-3 24 -875 2 c-481 1 -881 -1 -887 -4z"/>
</g>
</svg>
